<svg id="图层_1" data-name="图层 1" xmlns="http://www.w3.org/2000/svg" xmlns:xlink="http://www.w3.org/1999/xlink" viewBox="0 0 42 42"><defs><linearGradient id="未命名的渐变_1036" x1="1265.74" y1="-1341.87" x2="1281.09" y2="-1341.87" gradientTransform="matrix(0.74, -0.27, 0.67, 0.3, -14.03, 774.1)" gradientUnits="userSpaceOnUse"><stop offset="0" stop-color="#e1d6ff"/><stop offset="0.96" stop-color="#fff"/></linearGradient><linearGradient id="未命名的渐变_1036-2" x1="-324.34" y1="78.68" x2="-313.44" y2="78.68" gradientTransform="matrix(0.99, 0.15, -0.15, 0.99, 346.56, -11.71)" xlink:href="#未命名的渐变_1036"/><linearGradient id="未命名的渐变_1036-3" x1="-315.24" y1="76.71" x2="-315.24" y2="92.8" gradientTransform="matrix(0.99, 0.15, -0.15, 0.99, 346.56, -11.71)" xlink:href="#未命名的渐变_1036"/></defs><title>知识库-42X42</title><rect width="42" height="42" rx="3.94" ry="3.94" style="fill:#9d9dfc"/><path d="M25.19,26.64h1.64a0,0,0,0,1,0,0v6.5a.8.8,0,0,1-.8.8H22.75a.78.78,0,0,1-.78-.78V29.86A3.22,3.22,0,0,1,25.19,26.64Z" transform="translate(26.73 -8.54) rotate(42.29)" style="fill:url(#未命名的渐变_1036)"/><path d="M24.9,13.88a3.82,3.82,0,0,0-.25-5.4l-.77-.69h0L14.72,17.84a4.86,4.86,0,0,0,0,6.57h0L18,28.19s-1.75-4.59-.23-6.47Z" style="fill:url(#未命名的渐变_1036-2)"/><path d="M25.19,16.65,19,23.46a4.86,4.86,0,0,0,.08,6.63h0s1.8,1.92,1.88,2a2.29,2.29,0,0,0,.33.24,5.15,5.15,0,0,1,1-5.24l1-1.09v0l2.23-2.45A4.87,4.87,0,0,0,25.19,16.65Z" style="fill:url(#未命名的渐变_1036-3)"/></svg>